<svg xmlns="http://www.w3.org/2000/svg" style="display: none;">
  <symbol id="theme" viewBox="0 0 24 24">
    <path d="M12 2a10 10 0 0 0-10 10 10 10 0 0 0 10 10 10 10 0 0 0 10-10A10 10 0 0 0 12 2m0 18a8 8 0 0 1-8-8 8 8 0 0 1 8-8 8 8 0 0 1 4 1.07V12h6.93A8 8 0 0 1 12 20"/>
  </symbol>
  <symbol id="share" viewBox="0 0 24 24">
    <path d="M18 16.08c-.76 0-1.44.3-1.96.77L8.91 12.7c.05-.23.09-.46.09-.7s-.04-.47-.09-.7l7.05-4.11c.54.5 1.25.81 2.04.81 1.66 0 3-1.34 3-3s-1.34-3-3-3-3 1.34-3 3c0 .24.04.47.09.7L8.04 9.81C7.5 9.31 6.79 9 6 9c-1.66 0-3 1.34-3 3s1.34 3 3 3c.79 0 1.5-.31 2.04-.81l7.12 4.16c-.05.21-.08.43-.08.65 0 1.61 1.31 2.92 2.92 2.92s2.92-1.31 2.92-2.92c0-1.61-1.31-2.92-2.92-2.92z"/>
  </symbol>
  <symbol id="search" viewBox="0 0 24 24">
    <path d="M15.5 14h-.79l-.28-.27a6.5 6.5 0 0 0 1.48-5.73c-.47-2.78-2.96-5-5.97-5.34a6.505 6.505 0 0 0-6.5 6.5c0 3.61 2.89 6.5 6.5 6.5a6.5 6.5 0 0 0 5.73-1.48l.27.28v.79l5 4.99L20.49 19l-4.99-5zm-6 0C7.01 14 5 11.99 5 9.5S7.01 5 9.5 5 14 7.01 14 9.5 11.99 14 9.5 14z"/>
  </symbol>
  <symbol id="play" viewBox="0 0 24 24">
    <path d="M8 5v14l11-7z"/>
  </symbol>
  <symbol id="pause" viewBox="0 0 24 24">
    <path d="M6 19h4V5H6v14zm8-14v14h4V5h-4z"/>
  </symbol>
  <symbol id="prev" viewBox="0 0 24 24">
    <path d="M6 6h2v12H6zm3.5 6l8.5 6V6z"/>
  </symbol>
  <symbol id="next" viewBox="0 0 24 24">
    <path d="M6 18l8.5-6L6 6v12zM16 6v12h2V6h-2z"/>
  </symbol>
  <symbol id="radio" viewBox="0 0 24 24">
    <path d="M3.24 6.15C2.51 6.43 2 7.17 2 8v12a2 2 0 0 0 2 2h16a2 2 0 0 0 2-2V8c0-.83-.51-1.57-1.24-1.85l-1.3 4.04A2 2 0 0 0 17.46 12h-10.92a2 2 0 0 0-2 1.85L3.24 6.15zM12 18a3 3 0 1 1 0-6 3 3 0 0 1 0 6z"/>
  </symbol>
</svg>